<svg xmlns="http://www.w3.org/2000/svg" viewBox="0 0 512 512" width="512" height="512">
  <circle cx="256" cy="256" r="256" fill="#FF6F00"/>
  <circle cx="256" cy="256" r="240" fill="none" stroke="#FFD700" stroke-width="6" stroke-dasharray="20,10"/>
  <circle cx="256" cy="256" r="220" fill="none" stroke="#FFF8E1" stroke-width="1" opacity="0.3"/>
  <!-- Outer lotus petals (16) -->
  <g transform="translate(256,256)" fill="#FFF8E1" opacity="0.85">
    <ellipse cx="0" cy="-110" rx="22" ry="55" transform="rotate(0)"/>
    <ellipse cx="0" cy="-110" rx="22" ry="55" transform="rotate(22.5)"/>
    <ellipse cx="0" cy="-110" rx="22" ry="55" transform="rotate(45)"/>
    <ellipse cx="0" cy="-110" rx="22" ry="55" transform="rotate(67.5)"/>
    <ellipse cx="0" cy="-110" rx="22" ry="55" transform="rotate(90)"/>
    <ellipse cx="0" cy="-110" rx="22" ry="55" transform="rotate(112.5)"/>
    <ellipse cx="0" cy="-110" rx="22" ry="55" transform="rotate(135)"/>
    <ellipse cx="0" cy="-110" rx="22" ry="55" transform="rotate(157.5)"/>
    <ellipse cx="0" cy="-110" rx="22" ry="55" transform="rotate(180)"/>
    <ellipse cx="0" cy="-110" rx="22" ry="55" transform="rotate(202.5)"/>
    <ellipse cx="0" cy="-110" rx="22" ry="55" transform="rotate(225)"/>
    <ellipse cx="0" cy="-110" rx="22" ry="55" transform="rotate(247.5)"/>
    <ellipse cx="0" cy="-110" rx="22" ry="55" transform="rotate(270)"/>
    <ellipse cx="0" cy="-110" rx="22" ry="55" transform="rotate(292.5)"/>
    <ellipse cx="0" cy="-110" rx="22" ry="55" transform="rotate(315)"/>
    <ellipse cx="0" cy="-110" rx="22" ry="55" transform="rotate(337.5)"/>
  </g>
  <!-- Inner lotus petals -->
  <g transform="translate(256,256)" fill="#FFD700" opacity="0.9">
    <ellipse cx="0" cy="-68" rx="16" ry="35" transform="rotate(0)"/>
    <ellipse cx="0" cy="-68" rx="16" ry="35" transform="rotate(45)"/>
    <ellipse cx="0" cy="-68" rx="16" ry="35" transform="rotate(90)"/>
    <ellipse cx="0" cy="-68" rx="16" ry="35" transform="rotate(135)"/>
    <ellipse cx="0" cy="-68" rx="16" ry="35" transform="rotate(180)"/>
    <ellipse cx="0" cy="-68" rx="16" ry="35" transform="rotate(225)"/>
    <ellipse cx="0" cy="-68" rx="16" ry="35" transform="rotate(270)"/>
    <ellipse cx="0" cy="-68" rx="16" ry="35" transform="rotate(315)"/>
  </g>
  <!-- Center -->
  <circle cx="256" cy="256" r="52" fill="#E64A19"/>
  <circle cx="256" cy="256" r="45" fill="#3E2723"/>
  <!-- OM symbol -->
  <text x="256" y="275" text-anchor="middle" font-family="serif" font-size="58" fill="#FFD700" font-weight="bold">ॐ</text>
  <!-- App name -->
  <text x="256" y="410" text-anchor="middle" font-family="sans-serif" font-size="38" fill="#FFF8E1" font-weight="bold" letter-spacing="2">KumbhSathi</text>
  <!-- Subtitle -->
  <text x="256" y="448" text-anchor="middle" font-family="sans-serif" font-size="18" fill="#FFD700" letter-spacing="1">Nashik 2027</text>
</svg>
